<svg width="106" height="35" viewBox="0 0 106 35" fill="none" xmlns="http://www.w3.org/2000/svg">
<path d="M45.5951 22.9291C44.7379 22.9291 43.974 22.7803 43.3034 22.4825C42.6328 22.1789 42.1021 21.7322 41.7114 21.1425C41.3265 20.547 41.1341 19.8055 41.1341 18.918C41.1341 18.1706 41.2711 17.543 41.5452 17.035C41.8193 16.5271 42.1925 16.1184 42.6648 15.8089C43.1372 15.4995 43.6737 15.2659 44.2743 15.1083C44.8808 14.9506 45.5164 14.8397 46.1812 14.7755C46.9626 14.6937 47.5924 14.6178 48.0705 14.5478C48.5487 14.4719 48.8957 14.3609 49.1115 14.215C49.3272 14.069 49.4351 13.853 49.4351 13.5669V13.5143C49.4351 12.9597 49.2602 12.5305 48.9103 12.2269C48.5662 11.9233 48.0764 11.7715 47.4408 11.7715C46.7701 11.7715 46.2366 11.9204 45.84 12.2182C45.4435 12.5101 45.1811 12.8779 45.0528 13.3217L41.6064 13.0414C41.7814 12.224 42.1254 11.5175 42.6386 10.922C43.1517 10.3206 43.8136 9.85934 44.6242 9.53822C45.4406 9.21125 46.3853 9.04777 47.4583 9.04777C48.2047 9.04777 48.919 9.13535 49.6013 9.31051C50.2894 9.48567 50.8988 9.75717 51.4294 10.125C51.9659 10.4928 52.3887 10.9658 52.6978 11.5438C53.0068 12.116 53.1614 12.802 53.1614 13.6019V22.6752H49.6275V20.8097H49.5226C49.3068 21.2301 49.0182 21.6008 48.6566 21.922C48.2951 22.2373 47.8606 22.4854 47.3533 22.6664C46.846 22.8416 46.2599 22.9291 45.5951 22.9291ZM46.6623 20.3543C47.2104 20.3543 47.6944 20.2463 48.1143 20.0303C48.5341 19.8084 48.8636 19.5106 49.1027 19.1369C49.3418 18.7633 49.4613 18.34 49.4613 17.867V16.4395C49.3447 16.5154 49.1843 16.5855 48.9803 16.6497C48.782 16.7081 48.5575 16.7635 48.3067 16.8161C48.056 16.8628 47.8052 16.9066 47.5545 16.9475C47.3037 16.9825 47.0763 17.0146 46.8722 17.0438C46.4348 17.108 46.0529 17.2102 45.7263 17.3503C45.3998 17.4904 45.1461 17.6802 44.9653 17.9196C44.7845 18.1531 44.6942 18.4451 44.6942 18.7954C44.6942 19.3033 44.8778 19.6916 45.2452 19.9602C45.6184 20.2229 46.0908 20.3543 46.6623 20.3543Z" fill="#0F3567"/>
<path d="M61.12 28C59.9129 28 58.8779 27.8336 58.0148 27.5008C57.1576 27.1738 56.4753 26.7272 55.968 26.1608C55.4606 25.5945 55.1312 24.9581 54.9796 24.2516L58.4259 23.7874C58.5309 24.056 58.6971 24.3071 58.9245 24.5406C59.1519 24.7741 59.4523 24.961 59.8255 25.1011C60.2045 25.2471 60.6652 25.3201 61.2075 25.3201C62.0181 25.3201 62.6858 25.1215 63.2106 24.7245C63.7413 24.3333 64.0066 23.6765 64.0066 22.754V20.293H63.8491C63.6859 20.6667 63.4409 21.0199 63.1144 21.3527C62.7878 21.6855 62.368 21.957 61.8548 22.1672C61.3416 22.3774 60.7293 22.4825 60.0179 22.4825C59.0091 22.4825 58.0906 22.2489 57.2626 21.7818C56.4403 21.3089 55.7843 20.5878 55.2944 19.6186C54.8104 18.6436 54.5684 17.4116 54.5684 15.9228C54.5684 14.3989 54.8163 13.1261 55.3119 12.1043C55.8076 11.0825 56.4666 10.3177 57.2888 9.80971C58.1169 9.30175 59.0236 9.04777 60.0092 9.04777C60.7614 9.04777 61.3912 9.17622 61.8985 9.43312C62.4059 9.68418 62.8141 9.99947 63.1231 10.379C63.438 10.7527 63.68 11.1205 63.8491 11.4825H63.9891V9.22293H67.6891V22.8065C67.6891 23.9509 67.4092 24.9084 66.8494 25.6791C66.2896 26.4498 65.514 27.0279 64.5227 27.4132C63.5372 27.8044 62.4029 28 61.12 28ZM61.1988 19.6799C61.7994 19.6799 62.3067 19.5311 62.7208 19.2333C63.1406 18.9297 63.4613 18.4976 63.6829 17.9371C63.9104 17.3708 64.0241 16.6935 64.0241 15.9053C64.0241 15.117 63.9133 14.4339 63.6917 13.8559C63.4701 13.272 63.1494 12.8195 62.7295 12.4984C62.3096 12.1773 61.7994 12.0167 61.1988 12.0167C60.5865 12.0167 60.0704 12.1831 59.6505 12.5159C59.2307 12.8429 58.9128 13.2983 58.6971 13.8822C58.4813 14.466 58.3734 15.1404 58.3734 15.9053C58.3734 16.6818 58.4813 17.3532 58.6971 17.9196C58.9187 18.4801 59.2365 18.9151 59.6505 19.2245C60.0704 19.5281 60.5865 19.6799 61.1988 19.6799Z" fill="#0F3567"/>
<path d="M75.7921 22.9379C74.4101 22.9379 73.2205 22.6576 72.2233 22.0971C71.2319 21.5308 70.468 20.7309 69.9315 19.6975C69.395 18.6582 69.1268 17.4291 69.1268 16.0103C69.1268 14.6266 69.395 13.4122 69.9315 12.367C70.468 11.3219 71.2232 10.5074 72.197 9.92357C73.1767 9.3397 74.3255 9.04777 75.6434 9.04777C76.5298 9.04777 77.3549 9.19082 78.1188 9.47691C78.8886 9.75717 79.5592 10.1805 80.1307 10.7468C80.708 11.3132 81.157 12.0255 81.4777 12.8838C81.7985 13.7362 81.9588 14.7346 81.9588 15.879V16.9037H70.6138V14.5916H78.4512C78.4512 14.0544 78.3346 13.5786 78.1014 13.164C77.8681 12.7495 77.5445 12.4254 77.1304 12.1919C76.7222 11.9525 76.247 11.8328 75.7046 11.8328C75.139 11.8328 74.6375 11.9642 74.2001 12.2269C73.7686 12.4838 73.4304 12.8312 73.1855 13.2691C72.9405 13.7012 72.8152 14.1829 72.8093 14.7142V16.9124C72.8093 17.578 72.9318 18.1531 73.1767 18.6377C73.4275 19.1223 73.7803 19.496 74.2351 19.7588C74.69 20.0215 75.2294 20.1529 75.8533 20.1529C76.2674 20.1529 76.6464 20.0945 76.9905 19.9777C77.3345 19.8609 77.629 19.6858 77.8739 19.4522C78.1188 19.2187 78.3055 18.9326 78.4337 18.5939L81.8801 18.8217C81.7052 19.6507 81.3465 20.3747 80.8042 20.9936C80.2677 21.6067 79.5738 22.0855 78.7224 22.4299C77.8768 22.7686 76.9001 22.9379 75.7921 22.9379Z" fill="#0F3567"/>
<path d="M87.1315 14.8981V22.6752H83.4053V9.22293H86.9566V11.5963H87.114C87.4114 10.814 87.91 10.1951 88.6098 9.73965C89.3096 9.2784 90.158 9.04777 91.1552 9.04777C92.0882 9.04777 92.9017 9.25212 93.5957 9.66083C94.2896 10.0695 94.829 10.6534 95.2139 11.4124C95.5988 12.1656 95.7912 13.0648 95.7912 14.1099V22.6752H92.0649V14.7755C92.0707 13.9522 91.8608 13.31 91.4351 12.8487C91.0094 12.3816 90.4234 12.1481 89.677 12.1481C89.1755 12.1481 88.7323 12.2561 88.3474 12.4721C87.9683 12.6882 87.6709 13.0034 87.4552 13.418C87.2453 13.8267 87.1374 14.3201 87.1315 14.8981Z" fill="#0F3567"/>
<path d="M104.889 9.22293V12.0255H96.7981V9.22293H104.889ZM98.635 6H102.361V18.5414C102.361 18.8859 102.414 19.1545 102.519 19.3471C102.624 19.534 102.769 19.6653 102.956 19.7412C103.148 19.8171 103.37 19.8551 103.621 19.8551C103.796 19.8551 103.971 19.8405 104.146 19.8113C104.321 19.7763 104.455 19.75 104.548 19.7325L105.134 22.5088C104.947 22.5671 104.685 22.6343 104.347 22.7102C104.009 22.7919 103.598 22.8416 103.113 22.8591C102.215 22.8941 101.428 22.7744 100.752 22.5C100.081 22.2256 99.5592 21.7994 99.186 21.2213C98.8128 20.6433 98.6291 19.9135 98.635 19.0318V6Z" fill="#0F3567"/>
<path fill-rule="evenodd" clip-rule="evenodd" d="M2.11166 11.6905C1.97176 9.44476 1.93659 7.18155 1.93133 4.98195C2.12979 4.90539 2.37309 4.81299 2.65477 4.70875C3.49036 4.39952 4.66076 3.98717 5.99842 3.57514C8.7005 2.74284 11.9854 1.94382 14.567 1.94382C17.1487 1.94382 20.4336 2.74284 23.1357 3.57514C24.4733 3.98717 25.6437 4.39952 26.4793 4.70875C26.761 4.81299 27.0043 4.90539 27.2027 4.98195C27.1981 6.92465 27.1701 8.91697 27.0673 10.903C21.3955 11.7884 9.88861 14.8101 2.57416 22.3832L2.1379 22.8349L2.58122 23.9562L2.58359 23.962C4.58714 28.8463 8.1527 32.7087 14.3598 34.0826L14.567 34.1285L14.7743 34.0826C18.6017 33.2354 21.4519 31.4342 23.5466 28.9887C25.6292 26.5575 26.926 23.5361 27.7397 20.2949L25.868 19.8186C25.1007 22.8751 23.9099 25.5884 22.0847 27.7192C20.3084 29.7929 17.8939 31.3595 14.567 32.137C9.23915 30.8917 6.18556 27.6038 4.39841 23.2938C11.6377 16.1594 23.017 13.3992 28.1134 12.7147L28.8995 12.6091L28.9492 11.8121C29.1071 9.27796 29.1341 6.73592 29.1341 4.31957V3.66685L28.534 3.41991L28.1688 4.31957C28.534 3.41991 28.5339 3.41985 28.5337 3.41978L28.5264 3.4168L28.5071 3.40893C28.4971 3.40484 28.4843 3.39964 28.4688 3.39338C28.4585 3.38922 28.447 3.38459 28.4344 3.37951C28.3711 3.35402 28.2785 3.31705 28.1593 3.27024C27.9209 3.17664 27.5759 3.04359 27.1453 2.88426C26.2848 2.5658 25.0798 2.14123 23.7004 1.71635C20.9684 0.874816 17.4524 0 14.567 0C11.6817 0 8.16571 0.874816 5.43366 1.71635C4.05426 2.14123 2.84928 2.5658 1.98875 2.88426C1.55821 3.04359 1.21315 3.17664 0.974773 3.27024C0.855565 3.31705 0.76298 3.35402 0.699662 3.37951C0.668001 3.39225 0.643652 3.40213 0.626947 3.40893L0.60766 3.4168L0.60038 3.41978C0.600215 3.41985 0.600081 3.41991 0.965286 4.31957L0.600081 3.41991L0 3.66685V4.31957C-5.85797e-07 6.73592 0.0269974 9.27796 0.184879 11.8121L2.11166 11.6905ZM24.6587 7.42188C24.6587 8.41117 24.6525 9.42468 24.6272 10.4471C19.0168 11.8031 11.713 14.3213 5.39519 18.6697C4.56083 15.1089 4.47541 11.0981 4.47542 7.42188C4.47542 7.42188 10.5109 4.94792 14.567 4.94792C18.6232 4.94792 24.6587 7.42188 24.6587 7.42188ZM14.567 28.7156C10.4885 27.8164 8.05432 25.4077 6.6033 22.2711C12.5465 17.9015 19.2108 15.4461 24.4295 14.159C23.8388 20.8479 21.7606 27.1296 14.567 28.7156Z" fill="#11DBA3"/>
</svg>
