<svg width="408" height="298" viewBox="0 0 408 298" fill="none" xmlns="http://www.w3.org/2000/svg">
<g opacity="0.3">
<line x1="395.276" y1="203.24" x2="406.98" y2="207.5" stroke="#11DBA3" stroke-width="2"/>
<line x1="395.822" y1="229.864" x2="406.609" y2="236.092" stroke="#11DBA3" stroke-width="2"/>
<line x1="396.355" y1="256.656" x2="405.896" y2="264.662" stroke="#11DBA3" stroke-width="2"/>
<line x1="397.256" y1="283.65" x2="405.263" y2="293.192" stroke="#11DBA3" stroke-width="2"/>
<line x1="395.724" y1="17.7088" x2="403.731" y2="8.16716" stroke="#11DBA3" stroke-width="2"/>
<line x1="395.069" y1="44.4605" x2="404.611" y2="36.4542" stroke="#11DBA3" stroke-width="2"/>
<line x1="394.822" y1="71.0519" x2="405.609" y2="64.8241" stroke="#11DBA3" stroke-width="2"/>
<line x1="394.592" y1="97.5291" x2="406.296" y2="93.269" stroke="#11DBA3" stroke-width="2"/>
<line x1="394.37" y1="123.937" x2="406.637" y2="121.774" stroke="#11DBA3" stroke-width="2"/>
<line x1="394.544" y1="150.324" x2="407" y2="150.324" stroke="#11DBA3" stroke-width="2"/>
<line x1="394.718" y1="176.742" x2="406.984" y2="178.905" stroke="#11DBA3" stroke-width="2"/>
<line x1="373.478" y1="175.217" x2="385.182" y2="179.477" stroke="#11DBA3" stroke-width="2"/>
<line x1="374.025" y1="201.837" x2="384.812" y2="208.065" stroke="#11DBA3" stroke-width="2"/>
<line x1="374.557" y1="228.628" x2="384.098" y2="236.635" stroke="#11DBA3" stroke-width="2"/>
<line x1="375.458" y1="255.627" x2="383.465" y2="265.168" stroke="#11DBA3" stroke-width="2"/>
<line x1="376.726" y1="282.859" x2="382.954" y2="293.646" stroke="#11DBA3" stroke-width="2"/>
<line x1="373.271" y1="16.4371" x2="382.813" y2="8.43071" stroke="#11DBA3" stroke-width="2"/>
<line x1="373.025" y1="43.0285" x2="383.812" y2="36.8007" stroke="#11DBA3" stroke-width="2"/>
<line x1="372.794" y1="69.5017" x2="384.498" y2="65.2416" stroke="#11DBA3" stroke-width="2"/>
<line x1="372.573" y1="95.9097" x2="384.84" y2="93.7468" stroke="#11DBA3" stroke-width="2"/>
<line x1="372.747" y1="122.297" x2="385.203" y2="122.297" stroke="#11DBA3" stroke-width="2"/>
<line x1="372.921" y1="148.718" x2="385.187" y2="150.881" stroke="#11DBA3" stroke-width="2"/>
<line x1="351.68" y1="147.189" x2="363.384" y2="151.449" stroke="#11DBA3" stroke-width="2"/>
<line x1="352.228" y1="173.814" x2="363.014" y2="180.042" stroke="#11DBA3" stroke-width="2"/>
<line x1="352.76" y1="200.605" x2="362.302" y2="208.611" stroke="#11DBA3" stroke-width="2"/>
<line x1="353.662" y1="227.603" x2="361.668" y2="237.145" stroke="#11DBA3" stroke-width="2"/>
<line x1="354.93" y1="254.836" x2="361.157" y2="265.623" stroke="#11DBA3" stroke-width="2"/>
<line x1="355.781" y1="282.33" x2="360.042" y2="294.034" stroke="#11DBA3" stroke-width="2"/>
<line x1="351.228" y1="15.0012" x2="362.014" y2="8.77331" stroke="#11DBA3" stroke-width="2"/>
<line x1="350.996" y1="41.4783" x2="362.7" y2="37.2182" stroke="#11DBA3" stroke-width="2"/>
<line x1="350.776" y1="67.8863" x2="363.042" y2="65.7234" stroke="#11DBA3" stroke-width="2"/>
<line x1="350.949" y1="94.2734" x2="363.405" y2="94.2734" stroke="#11DBA3" stroke-width="2"/>
<line x1="351.123" y1="120.691" x2="363.389" y2="122.854" stroke="#11DBA3" stroke-width="2"/>
<line x1="329.883" y1="119.166" x2="341.588" y2="123.426" stroke="#11DBA3" stroke-width="2"/>
<line x1="330.43" y1="145.786" x2="341.217" y2="152.014" stroke="#11DBA3" stroke-width="2"/>
<line x1="330.962" y1="172.578" x2="340.504" y2="180.584" stroke="#11DBA3" stroke-width="2"/>
<line x1="331.864" y1="199.576" x2="339.87" y2="209.118" stroke="#11DBA3" stroke-width="2"/>
<line x1="333.132" y1="226.813" x2="339.359" y2="237.599" stroke="#11DBA3" stroke-width="2"/>
<line x1="333.984" y1="254.306" x2="338.244" y2="266.011" stroke="#11DBA3" stroke-width="2"/>
<line x1="335.197" y1="282.08" x2="337.36" y2="294.347" stroke="#11DBA3" stroke-width="2"/>
<line x1="329.199" y1="13.4509" x2="340.904" y2="9.19083" stroke="#11DBA3" stroke-width="2"/>
<line x1="328.978" y1="39.8589" x2="341.244" y2="37.696" stroke="#11DBA3" stroke-width="2"/>
<line x1="329.151" y1="66.2461" x2="341.607" y2="66.2461" stroke="#11DBA3" stroke-width="2"/>
<line x1="329.325" y1="92.6675" x2="341.591" y2="94.8304" stroke="#11DBA3" stroke-width="2"/>
<line x1="308.085" y1="91.1384" x2="319.79" y2="95.3985" stroke="#11DBA3" stroke-width="2"/>
<line x1="308.633" y1="117.763" x2="319.42" y2="123.991" stroke="#11DBA3" stroke-width="2"/>
<line x1="309.164" y1="144.554" x2="318.706" y2="152.561" stroke="#11DBA3" stroke-width="2"/>
<line x1="310.067" y1="171.553" x2="318.073" y2="181.094" stroke="#11DBA3" stroke-width="2"/>
<line x1="311.334" y1="198.785" x2="317.562" y2="209.572" stroke="#11DBA3" stroke-width="2"/>
<line x1="312.187" y1="226.279" x2="316.447" y2="237.984" stroke="#11DBA3" stroke-width="2"/>
<line x1="313.399" y1="254.053" x2="315.562" y2="266.319" stroke="#11DBA3" stroke-width="2"/>
<line x1="307.181" y1="11.8355" x2="319.447" y2="9.6726" stroke="#11DBA3" stroke-width="2"/>
<line x1="307.354" y1="38.2227" x2="319.81" y2="38.2227" stroke="#11DBA3" stroke-width="2"/>
<line x1="307.528" y1="64.6402" x2="319.795" y2="66.8031" stroke="#11DBA3" stroke-width="2"/>
<line x1="312.582" y1="297.68" x2="312.582" y2="285.224" stroke="#11DBA3" stroke-width="2"/>
<line x1="286.288" y1="63.115" x2="297.993" y2="67.3751" stroke="#11DBA3" stroke-width="2"/>
<line x1="286.835" y1="89.7355" x2="297.622" y2="95.9634" stroke="#11DBA3" stroke-width="2"/>
<line x1="287.367" y1="116.527" x2="296.909" y2="124.533" stroke="#11DBA3" stroke-width="2"/>
<line x1="288.269" y1="143.525" x2="296.275" y2="153.067" stroke="#11DBA3" stroke-width="2"/>
<line x1="289.537" y1="170.762" x2="295.765" y2="181.549" stroke="#11DBA3" stroke-width="2"/>
<line x1="290.389" y1="198.256" x2="294.649" y2="209.96" stroke="#11DBA3" stroke-width="2"/>
<line x1="291.602" y1="226.029" x2="293.765" y2="238.296" stroke="#11DBA3" stroke-width="2"/>
<line x1="285.557" y1="10.1953" x2="298.012" y2="10.1953" stroke="#11DBA3" stroke-width="2"/>
<line x1="285.73" y1="36.6168" x2="297.997" y2="38.7797" stroke="#11DBA3" stroke-width="2"/>
<line x1="290.784" y1="269.652" x2="290.784" y2="257.197" stroke="#11DBA3" stroke-width="2"/>
<line x1="289.632" y1="297.365" x2="291.795" y2="285.099" stroke="#11DBA3" stroke-width="2"/>
<line x1="264.49" y1="35.0877" x2="276.195" y2="39.3478" stroke="#11DBA3" stroke-width="2"/>
<line x1="265.038" y1="61.7121" x2="275.825" y2="67.9399" stroke="#11DBA3" stroke-width="2"/>
<line x1="265.57" y1="88.5035" x2="275.111" y2="96.5099" stroke="#11DBA3" stroke-width="2"/>
<line x1="266.471" y1="115.502" x2="274.477" y2="125.043" stroke="#11DBA3" stroke-width="2"/>
<line x1="267.739" y1="142.734" x2="273.967" y2="153.521" stroke="#11DBA3" stroke-width="2"/>
<line x1="268.591" y1="170.228" x2="272.851" y2="181.933" stroke="#11DBA3" stroke-width="2"/>
<line x1="269.804" y1="198.002" x2="271.967" y2="210.269" stroke="#11DBA3" stroke-width="2"/>
<line x1="263.932" y1="8.58941" x2="276.199" y2="10.7523" stroke="#11DBA3" stroke-width="2"/>
<line x1="268.987" y1="241.629" x2="268.987" y2="229.173" stroke="#11DBA3" stroke-width="2"/>
<line x1="267.835" y1="269.338" x2="269.997" y2="257.072" stroke="#11DBA3" stroke-width="2"/>
<line x1="266.712" y1="296.775" x2="270.972" y2="285.071" stroke="#11DBA3" stroke-width="2"/>
<line x1="242.693" y1="7.06421" x2="254.397" y2="11.3243" stroke="#11DBA3" stroke-width="2"/>
<line x1="243.24" y1="33.6848" x2="254.027" y2="39.9126" stroke="#11DBA3" stroke-width="2"/>
<line x1="243.773" y1="60.4761" x2="253.314" y2="68.4825" stroke="#11DBA3" stroke-width="2"/>
<line x1="244.674" y1="87.4744" x2="252.681" y2="97.016" stroke="#11DBA3" stroke-width="2"/>
<line x1="245.942" y1="114.711" x2="252.17" y2="125.498" stroke="#11DBA3" stroke-width="2"/>
<line x1="246.794" y1="142.205" x2="251.054" y2="153.909" stroke="#11DBA3" stroke-width="2"/>
<line x1="248.006" y1="169.979" x2="250.169" y2="182.245" stroke="#11DBA3" stroke-width="2"/>
<line x1="244.21" y1="295.93" x2="250.438" y2="285.143" stroke="#11DBA3" stroke-width="2"/>
<line x1="247.189" y1="213.605" x2="247.189" y2="201.15" stroke="#11DBA3" stroke-width="2"/>
<line x1="246.037" y1="241.315" x2="248.2" y2="229.048" stroke="#11DBA3" stroke-width="2"/>
<line x1="244.915" y1="268.748" x2="249.175" y2="257.043" stroke="#11DBA3" stroke-width="2"/>
<line x1="221.442" y1="5.66132" x2="232.229" y2="11.8892" stroke="#11DBA3" stroke-width="2"/>
<line x1="221.975" y1="32.4527" x2="231.516" y2="40.4591" stroke="#11DBA3" stroke-width="2"/>
<line x1="222.876" y1="59.451" x2="230.883" y2="68.9926" stroke="#11DBA3" stroke-width="2"/>
<line x1="224.144" y1="86.6836" x2="230.372" y2="97.4705" stroke="#11DBA3" stroke-width="2"/>
<line x1="224.996" y1="114.178" x2="229.256" y2="125.882" stroke="#11DBA3" stroke-width="2"/>
<line x1="226.209" y1="141.951" x2="228.372" y2="154.218" stroke="#11DBA3" stroke-width="2"/>
<line x1="222.412" y1="267.902" x2="228.64" y2="257.115" stroke="#11DBA3" stroke-width="2"/>
<line x1="221.344" y1="294.853" x2="229.351" y2="285.312" stroke="#11DBA3" stroke-width="2"/>
<line x1="225.393" y1="185.578" x2="225.393" y2="173.122" stroke="#11DBA3" stroke-width="2"/>
<line x1="224.24" y1="213.287" x2="226.403" y2="201.021" stroke="#11DBA3" stroke-width="2"/>
<line x1="223.117" y1="240.724" x2="227.377" y2="229.02" stroke="#11DBA3" stroke-width="2"/>
<line x1="200.177" y1="4.42536" x2="209.719" y2="12.4317" stroke="#11DBA3" stroke-width="2"/>
<line x1="201.08" y1="31.4236" x2="209.086" y2="40.9652" stroke="#11DBA3" stroke-width="2"/>
<line x1="202.346" y1="58.6602" x2="208.574" y2="69.4471" stroke="#11DBA3" stroke-width="2"/>
<line x1="203.198" y1="86.1541" x2="207.459" y2="97.8586" stroke="#11DBA3" stroke-width="2"/>
<line x1="204.412" y1="113.928" x2="206.574" y2="126.194" stroke="#11DBA3" stroke-width="2"/>
<line x1="200.614" y1="239.879" x2="206.842" y2="229.092" stroke="#11DBA3" stroke-width="2"/>
<line x1="199.547" y1="266.826" x2="207.554" y2="257.284" stroke="#11DBA3" stroke-width="2"/>
<line x1="198.891" y1="293.578" x2="208.433" y2="285.571" stroke="#11DBA3" stroke-width="2"/>
<line x1="203.595" y1="157.555" x2="203.595" y2="145.099" stroke="#11DBA3" stroke-width="2"/>
<line x1="202.442" y1="185.264" x2="204.605" y2="172.997" stroke="#11DBA3" stroke-width="2"/>
<line x1="201.319" y1="212.701" x2="205.579" y2="200.996" stroke="#11DBA3" stroke-width="2"/>
<line x1="179.282" y1="3.40018" x2="187.288" y2="12.9418" stroke="#11DBA3" stroke-width="2"/>
<line x1="180.55" y1="30.6328" x2="186.777" y2="41.4198" stroke="#11DBA3" stroke-width="2"/>
<line x1="181.402" y1="58.1267" x2="185.662" y2="69.8313" stroke="#11DBA3" stroke-width="2"/>
<line x1="182.615" y1="85.9006" x2="184.778" y2="98.167" stroke="#11DBA3" stroke-width="2"/>
<line x1="178.818" y1="211.852" x2="185.045" y2="201.065" stroke="#11DBA3" stroke-width="2"/>
<line x1="177.75" y1="238.803" x2="185.756" y2="229.261" stroke="#11DBA3" stroke-width="2"/>
<line x1="177.095" y1="265.55" x2="186.636" y2="257.544" stroke="#11DBA3" stroke-width="2"/>
<line x1="176.848" y1="292.146" x2="187.635" y2="285.918" stroke="#11DBA3" stroke-width="2"/>
<line x1="181.797" y1="129.527" x2="181.797" y2="117.072" stroke="#11DBA3" stroke-width="2"/>
<line x1="180.645" y1="157.237" x2="182.808" y2="144.97" stroke="#11DBA3" stroke-width="2"/>
<line x1="179.522" y1="184.674" x2="183.782" y2="172.969" stroke="#11DBA3" stroke-width="2"/>
<line x1="158.752" y1="2.60938" x2="164.98" y2="13.3963" stroke="#11DBA3" stroke-width="2"/>
<line x1="159.604" y1="30.1033" x2="163.864" y2="41.8078" stroke="#11DBA3" stroke-width="2"/>
<line x1="160.817" y1="57.8771" x2="162.98" y2="70.1436" stroke="#11DBA3" stroke-width="2"/>
<line x1="157.02" y1="183.828" x2="163.248" y2="173.041" stroke="#11DBA3" stroke-width="2"/>
<line x1="155.952" y1="210.775" x2="163.958" y2="201.234" stroke="#11DBA3" stroke-width="2"/>
<line x1="155.297" y1="237.527" x2="164.838" y2="229.521" stroke="#11DBA3" stroke-width="2"/>
<line x1="155.051" y1="264.118" x2="165.838" y2="257.891" stroke="#11DBA3" stroke-width="2"/>
<line x1="154.819" y1="290.595" x2="166.524" y2="286.335" stroke="#11DBA3" stroke-width="2"/>
<line x1="160" y1="101.504" x2="160" y2="89.0482" stroke="#11DBA3" stroke-width="2"/>
<line x1="158.847" y1="129.213" x2="161.01" y2="116.947" stroke="#11DBA3" stroke-width="2"/>
<line x1="157.724" y1="156.65" x2="161.984" y2="144.946" stroke="#11DBA3" stroke-width="2"/>
<line x1="137.807" y1="2.07595" x2="142.067" y2="13.7805" stroke="#11DBA3" stroke-width="2"/>
<line x1="139.019" y1="29.8498" x2="141.182" y2="42.1163" stroke="#11DBA3" stroke-width="2"/>
<line x1="135.222" y1="155.801" x2="141.45" y2="145.014" stroke="#11DBA3" stroke-width="2"/>
<line x1="134.155" y1="182.752" x2="142.161" y2="173.21" stroke="#11DBA3" stroke-width="2"/>
<line x1="133.5" y1="209.503" x2="143.041" y2="201.497" stroke="#11DBA3" stroke-width="2"/>
<line x1="133.253" y1="236.095" x2="144.04" y2="229.867" stroke="#11DBA3" stroke-width="2"/>
<line x1="133.021" y1="262.568" x2="144.726" y2="258.308" stroke="#11DBA3" stroke-width="2"/>
<line x1="132.801" y1="288.976" x2="145.067" y2="286.813" stroke="#11DBA3" stroke-width="2"/>
<line x1="138.202" y1="73.4766" x2="138.202" y2="61.0209" stroke="#11DBA3" stroke-width="2"/>
<line x1="137.049" y1="101.186" x2="139.212" y2="88.9193" stroke="#11DBA3" stroke-width="2"/>
<line x1="135.927" y1="128.623" x2="140.188" y2="116.918" stroke="#11DBA3" stroke-width="2"/>
<line x1="117.222" y1="1.82635" x2="119.385" y2="14.0928" stroke="#11DBA3" stroke-width="2"/>
<line x1="113.425" y1="127.777" x2="119.653" y2="116.99" stroke="#11DBA3" stroke-width="2"/>
<line x1="112.357" y1="154.724" x2="120.363" y2="145.183" stroke="#11DBA3" stroke-width="2"/>
<line x1="111.702" y1="181.476" x2="121.244" y2="173.47" stroke="#11DBA3" stroke-width="2"/>
<line x1="111.455" y1="208.068" x2="122.242" y2="201.84" stroke="#11DBA3" stroke-width="2"/>
<line x1="111.224" y1="234.545" x2="122.929" y2="230.285" stroke="#11DBA3" stroke-width="2"/>
<line x1="111.003" y1="260.953" x2="123.27" y2="258.79" stroke="#11DBA3" stroke-width="2"/>
<line x1="111.177" y1="287.34" x2="123.632" y2="287.34" stroke="#11DBA3" stroke-width="2"/>
<line x1="116.405" y1="45.4531" x2="116.405" y2="32.9974" stroke="#11DBA3" stroke-width="2"/>
<line x1="115.252" y1="73.1623" x2="117.415" y2="60.8958" stroke="#11DBA3" stroke-width="2"/>
<line x1="114.13" y1="100.599" x2="118.39" y2="88.8949" stroke="#11DBA3" stroke-width="2"/>
<line x1="91.6271" y1="99.75" x2="97.855" y2="88.9631" stroke="#11DBA3" stroke-width="2"/>
<line x1="90.5601" y1="126.701" x2="98.5665" y2="117.159" stroke="#11DBA3" stroke-width="2"/>
<line x1="89.9041" y1="153.453" x2="99.4457" y2="145.446" stroke="#11DBA3" stroke-width="2"/>
<line x1="89.6582" y1="180.044" x2="100.445" y2="173.816" stroke="#11DBA3" stroke-width="2"/>
<line x1="89.4265" y1="206.517" x2="101.131" y2="202.257" stroke="#11DBA3" stroke-width="2"/>
<line x1="89.2062" y1="232.925" x2="101.473" y2="230.762" stroke="#11DBA3" stroke-width="2"/>
<line x1="89.3799" y1="259.312" x2="101.836" y2="259.312" stroke="#11DBA3" stroke-width="2"/>
<line x1="89.5535" y1="285.734" x2="101.82" y2="287.897" stroke="#11DBA3" stroke-width="2"/>
<line x1="94.6074" y1="17.4258" x2="94.6074" y2="4.97009" stroke="#11DBA3" stroke-width="2"/>
<line x1="93.4546" y1="45.1349" x2="95.6176" y2="32.8685" stroke="#11DBA3" stroke-width="2"/>
<line x1="92.3318" y1="72.572" x2="96.5919" y2="60.8675" stroke="#11DBA3" stroke-width="2"/>
<line x1="68.3137" y1="284.205" x2="80.0182" y2="288.465" stroke="#11DBA3" stroke-width="2"/>
<line x1="69.8303" y1="71.7266" x2="76.0581" y2="60.9396" stroke="#11DBA3" stroke-width="2"/>
<line x1="68.7623" y1="98.6736" x2="76.7686" y2="89.132" stroke="#11DBA3" stroke-width="2"/>
<line x1="68.1072" y1="125.425" x2="77.6488" y2="117.419" stroke="#11DBA3" stroke-width="2"/>
<line x1="67.8603" y1="152.017" x2="78.6473" y2="145.789" stroke="#11DBA3" stroke-width="2"/>
<line x1="67.6297" y1="178.494" x2="79.3342" y2="174.234" stroke="#11DBA3" stroke-width="2"/>
<line x1="67.4084" y1="204.902" x2="79.6748" y2="202.739" stroke="#11DBA3" stroke-width="2"/>
<line x1="67.582" y1="231.289" x2="80.0377" y2="231.289" stroke="#11DBA3" stroke-width="2"/>
<line x1="67.7557" y1="257.707" x2="80.0221" y2="259.87" stroke="#11DBA3" stroke-width="2"/>
<line x1="71.6578" y1="17.1115" x2="73.8207" y2="4.84504" stroke="#11DBA3" stroke-width="2"/>
<line x1="70.5349" y1="44.5486" x2="74.795" y2="32.8441" stroke="#11DBA3" stroke-width="2"/>
<line x1="46.5158" y1="256.181" x2="58.2204" y2="260.441" stroke="#11DBA3" stroke-width="2"/>
<line x1="47.0635" y1="282.802" x2="57.8504" y2="289.03" stroke="#11DBA3" stroke-width="2"/>
<line x1="48.0324" y1="43.6992" x2="54.2603" y2="32.9123" stroke="#11DBA3" stroke-width="2"/>
<line x1="46.9644" y1="70.6502" x2="54.9708" y2="61.1086" stroke="#11DBA3" stroke-width="2"/>
<line x1="46.3094" y1="97.4019" x2="55.851" y2="89.3956" stroke="#11DBA3" stroke-width="2"/>
<line x1="46.0635" y1="123.993" x2="56.8504" y2="117.766" stroke="#11DBA3" stroke-width="2"/>
<line x1="45.8318" y1="150.467" x2="57.5363" y2="146.206" stroke="#11DBA3" stroke-width="2"/>
<line x1="45.6105" y1="176.875" x2="57.877" y2="174.712" stroke="#11DBA3" stroke-width="2"/>
<line x1="45.7842" y1="203.262" x2="58.2399" y2="203.262" stroke="#11DBA3" stroke-width="2"/>
<line x1="45.9578" y1="229.683" x2="58.2243" y2="231.846" stroke="#11DBA3" stroke-width="2"/>
<line x1="48.7371" y1="16.5213" x2="52.9972" y2="4.81674" stroke="#11DBA3" stroke-width="2"/>
<line x1="24.718" y1="228.154" x2="36.4225" y2="232.414" stroke="#11DBA3" stroke-width="2"/>
<line x1="25.2656" y1="254.779" x2="36.0526" y2="261.006" stroke="#11DBA3" stroke-width="2"/>
<line x1="25.798" y1="281.57" x2="35.3397" y2="289.576" stroke="#11DBA3" stroke-width="2"/>
<line x1="26.2346" y1="15.6758" x2="32.4624" y2="4.88883" stroke="#11DBA3" stroke-width="2"/>
<line x1="25.1675" y1="42.6228" x2="33.1739" y2="33.0812" stroke="#11DBA3" stroke-width="2"/>
<line x1="24.5125" y1="69.3746" x2="34.0541" y2="61.3682" stroke="#11DBA3" stroke-width="2"/>
<line x1="24.2656" y1="95.966" x2="35.0526" y2="89.7382" stroke="#11DBA3" stroke-width="2"/>
<line x1="24.034" y1="122.443" x2="35.7385" y2="118.183" stroke="#11DBA3" stroke-width="2"/>
<line x1="23.8137" y1="148.851" x2="36.0801" y2="146.688" stroke="#11DBA3" stroke-width="2"/>
<line x1="23.9873" y1="175.238" x2="36.443" y2="175.238" stroke="#11DBA3" stroke-width="2"/>
<line x1="24.1609" y1="201.656" x2="36.4274" y2="203.819" stroke="#11DBA3" stroke-width="2"/>
<line x1="2.92111" y1="200.131" x2="14.6256" y2="204.391" stroke="#11DBA3" stroke-width="2"/>
<line x1="3.46776" y1="226.751" x2="14.2547" y2="232.979" stroke="#11DBA3" stroke-width="2"/>
<line x1="4.0002" y1="253.543" x2="13.5418" y2="261.549" stroke="#11DBA3" stroke-width="2"/>
<line x1="4.90178" y1="280.541" x2="12.9081" y2="290.082" stroke="#11DBA3" stroke-width="2"/>
<line x1="3.3697" y1="14.5994" x2="11.3761" y2="5.05778" stroke="#11DBA3" stroke-width="2"/>
<line x1="2.71463" y1="41.3511" x2="12.2562" y2="33.3448" stroke="#11DBA3" stroke-width="2"/>
<line x1="2.46777" y1="67.9426" x2="13.2547" y2="61.7147" stroke="#11DBA3" stroke-width="2"/>
<line x1="2.23708" y1="94.4158" x2="13.9416" y2="90.1557" stroke="#11DBA3" stroke-width="2"/>
<line x1="2.0158" y1="120.824" x2="14.2823" y2="118.661" stroke="#11DBA3" stroke-width="2"/>
<line x1="2.18945" y1="147.211" x2="14.6451" y2="147.211" stroke="#11DBA3" stroke-width="2"/>
<line x1="2.36309" y1="173.632" x2="14.6296" y2="175.795" stroke="#11DBA3" stroke-width="2"/>
</g>
</svg>
